<svg width="242" height="285" viewBox="0 0 242 285" fill="none" xmlns="http://www.w3.org/2000/svg">
<path d="M183.206 8.95805C185.116 6.59588 184.749 3.13284 182.387 1.22315C180.024 -0.686547 176.561 -0.319741 174.652 2.04243L178.929 5.50024L183.206 8.95805ZM76.1949 191.421C79.0691 192.404 82.1957 190.87 83.1783 187.996C84.1609 185.122 82.6273 181.995 79.7531 181.013L77.974 186.217L76.1949 191.421ZM226.314 34.1399C228.224 31.7778 227.857 28.3147 225.495 26.405C223.133 24.4953 219.67 24.8621 217.76 27.2243L222.037 30.6821L226.314 34.1399ZM119.303 216.603C122.178 217.586 125.304 216.052 126.287 213.178C127.269 210.304 125.736 207.177 122.861 206.194L121.082 211.399L119.303 216.603ZM34.9019 130.688C36.5486 128.135 35.8142 124.731 33.2617 123.085C30.7092 121.438 27.3051 122.172 25.6584 124.725L30.2802 127.706L34.9019 130.688ZM49.6046 249.172L46.0651 253.381H46.0651L49.6046 249.172ZM225.758 209.631C224.782 206.754 221.658 205.214 218.782 206.191L171.91 222.104C169.033 223.08 167.493 226.204 168.47 229.08C169.446 231.956 172.57 233.496 175.446 232.52L217.11 218.375L231.255 260.039C232.232 262.916 235.355 264.456 238.232 263.479C241.108 262.503 242.648 259.379 241.671 256.503L225.758 209.631ZM178.929 5.50024L174.652 2.04243C120.025 69.6117 91.515 114.186 78.1552 142.594C71.5033 156.739 68.3998 167.301 67.9471 174.924C67.5081 182.316 69.6358 189.179 76.1949 191.421L77.974 186.217L79.7531 181.013C79.7439 181.009 79.7514 181.014 79.7406 181.004C79.7235 180.988 79.6074 180.875 79.4604 180.551C79.1423 179.851 78.7636 178.341 78.9278 175.576C79.2581 170.015 81.6813 160.944 88.1093 147.276C100.909 120.058 128.772 76.2898 183.206 8.95805L178.929 5.50024ZM222.037 30.6821L217.76 27.2243C163.134 94.7933 134.623 139.368 121.264 167.776C114.612 181.92 111.508 192.483 111.056 200.106C110.617 207.498 112.744 214.361 119.303 216.603L121.082 211.399L122.861 206.194C122.852 206.191 122.86 206.196 122.849 206.186C122.832 206.17 122.716 206.056 122.569 205.733C122.251 205.033 121.872 203.523 122.036 200.758C122.366 195.196 124.79 186.126 131.218 172.457C144.018 145.24 171.88 101.471 226.314 34.1399L222.037 30.6821ZM30.2802 127.706L25.6584 124.725C20.9528 132.019 14.7947 140.369 10.0349 148.625C5.1307 157.132 1.06317 166.528 0.179176 177.151C-1.6231 198.808 9.9048 222.978 46.0651 253.381L49.6046 249.172L53.1442 244.962C17.9528 215.373 9.78477 194.364 11.1413 178.063C11.8367 169.707 15.0623 161.929 19.5647 154.119C24.2116 146.058 29.5738 138.947 34.9019 130.688L30.2802 127.706ZM49.6046 249.172L46.0651 253.381C83.0539 284.481 120.694 289.884 152.957 279.45C184.917 269.115 210.86 243.488 225.483 213.831L220.55 211.399L215.617 208.966C202.056 236.47 178.202 259.725 149.573 268.984C121.247 278.144 87.5071 273.854 53.1442 244.962L49.6046 249.172Z" fill="black"/>
</svg>
